#N canvas 0 49 958 498 10;
#X obj 352 255 comport;
#X obj 393 308 print comport;
#X msg 287 187 info;
#X msg 324 141 help;
#X msg 415 223 close;
#X msg 352 174 48 48 48 48 102 102 102 102;
#X msg 502 238 baud 115200;
#X msg 385 202 devicename /dev/ttyUSB0;
#X obj 13 19 vsl 15 128 0 127 0 0 empty empty empty 0 -9 0 10 -262144
-1 -1 12700 1;
#X msg 385 115 255 0 0 0;
#X obj 187 70 metro 1;
#X obj 190 33 tgl 15 0 empty empty empty 17 7 0 10 -262144 -1 -1 0
1;
#X obj 191 142 snapshot~;
#X obj 197 183 * 127;
#X obj 149 186 print;
#X obj 82 52 phasor~ 0.5;
#X msg 201 250 129 \$1 127 10;
#X connect 0 1 1 0;
#X connect 2 0 0 0;
#X connect 3 0 0 0;
#X connect 4 0 0 0;
#X connect 5 0 0 0;
#X connect 6 0 0 0;
#X connect 7 0 0 0;
#X connect 8 0 16 0;
#X connect 9 0 0 0;
#X connect 10 0 12 0;
#X connect 11 0 10 0;
#X connect 12 0 13 0;
#X connect 13 0 16 0;
#X connect 15 0 12 0;
#X connect 16 0 0 0;
