#N canvas 179 47 1676 921 10;
#X obj 1407 89 bng 15 250 50 0 empty empty empty 17 7 0 10 -4032 -1
-1;
#X floatatom 1407 143 5 0 0 0 - - -;
#X obj 1407 3 keyname;
#X obj 1407 25 pack f s;
#X obj 1407 45 route 1;
#X obj 1407 66 route F5;
#X text 1426 88 <- push this or hit F5 four times on the beat;
#X obj 1407 298 bng 15 250 50 0 empty empty empty 17 7 0 10 -262144
-1 -1;
#X text 1426 298 <- beat indicator;
#N canvas 734 152 1126 641 taptempo 0;
#X obj 72 60 x37v-tempo_tapper;
#X floatatom 188 169 5 0 0 0 - - -;
#X obj 188 147 /;
#X obj 188 106 t b f;
#X msg 188 127 60000;
#X obj 72 137 metro;
#X msg 72 113 1;
#X msg 25 113 0;
#X msg 25 164 set 0;
#X obj 72 195 x37v-count 4;
#X obj -7 27 t b b;
#X floatatom 188 87 5 0 0 0 - - -;
#X msg 72 32 reset;
#X text 119 30 <- reset the calculation \, or just wait 1 second after
a bang input;
#X text 222 168 <- bpm;
#X obj -9 6 inlet;
#X obj 72 225 outlet;
#X obj 188 226 outlet;
#X connect 0 0 6 0;
#X connect 0 1 5 1;
#X connect 0 1 11 0;
#X connect 1 0 17 0;
#X connect 2 0 1 0;
#X connect 3 0 4 0;
#X connect 3 1 2 1;
#X connect 4 0 2 0;
#X connect 5 0 9 0;
#X connect 6 0 5 0;
#X connect 7 0 5 0;
#X connect 7 0 8 0;
#X connect 8 0 9 0;
#X connect 9 0 16 0;
#X connect 10 0 0 0;
#X connect 10 1 7 0;
#X connect 11 0 3 0;
#X connect 12 0 0 0;
#X connect 12 0 7 0;
#X connect 15 0 10 0;
#X restore 1407 116 pd taptempo;
#X floatatom 1470 141 5 0 0 0 - - -;
#X text 1506 140 <-bpm;
#X obj 1407 179 spigot 0;
#X obj 1452 159 tgl 15 0 empty empty empty 17 7 0 10 -4034 -1 -1 1
1;
#X text 1271 142 beat number: 0..3 ->;
#X obj 1421 269 s beat;
#X obj 1474 173 s bpm;
#X obj 1210 93 s strobe_tick;
#X obj 1210 66 metro 4;
#X obj 1210 22 sel 0;
#X msg 1210 43 1;
#X obj 1252 39 hsl 128 15 4 200 1 0 empty empty empty -2 -8 0 10 -262144
-1 -1 0 1;
#X floatatom 1264 67 5 0 0 0 - - -;
#X obj 1210 -5 r beat;
#X obj 1058 558 random 128;
#X obj 1058 591 / 128;
#X obj 244 372 pat_shift 6;
#X obj 1131 558 i 0;
#X obj 1157 557 + 7;
#X obj 1131 582 / 100;
#X obj 1131 609 wrap;
#X obj 244 421 print;
#N canvas 341 222 486 637 mirror 0;
#X obj -286 337 + 4;
#X obj -281 179 t f b f;
#X floatatom -278 388 5 0 0 0 - - -;
#X floatatom -243 388 5 0 0 0 - - -;
#X obj -250 339 -;
#X obj -282 143 x37v-count 4;
#X obj -282 94 bng 15 250 50 0 empty empty empty 17 7 0 10 -262144
-1 -1;
#X obj -262 310 i 3;
#X obj -178 134 mod 2;
#X obj -178 104 t f f;
#X obj -178 197 pack f f;
#X obj -178 80 i;
#X obj -178 224 route 0 1;
#X obj -223 253 - 1;
#X floatatom -169 54 5 0 0 0 - - -;
#X floatatom -325 182 5 0 0 0 - - -;
#X msg -269 118 set_length \$1;
#X obj -164 250 - 1;
#X obj -298 23 inlet;
#X obj -178 16 inlet;
#X obj -278 445 pack f f;
#X msg -278 470 \$2 \$1;
#X obj -278 498 outlet;
#X connect 0 0 2 0;
#X connect 1 0 0 0;
#X connect 1 1 7 0;
#X connect 1 2 4 1;
#X connect 2 0 20 0;
#X connect 3 0 20 1;
#X connect 4 0 3 0;
#X connect 5 0 1 0;
#X connect 5 0 15 0;
#X connect 6 0 5 0;
#X connect 7 0 4 0;
#X connect 8 0 10 0;
#X connect 9 0 8 0;
#X connect 9 1 10 1;
#X connect 10 0 12 0;
#X connect 11 0 9 0;
#X connect 11 0 16 0;
#X connect 12 0 0 1;
#X connect 12 0 13 0;
#X connect 12 1 17 0;
#X connect 13 0 7 1;
#X connect 14 0 11 0;
#X connect 16 0 5 0;
#X connect 17 0 7 1;
#X connect 17 0 0 1;
#X connect 18 0 6 0;
#X connect 19 0 14 0;
#X connect 20 0 21 0;
#X connect 21 0 22 0;
#X restore 443 263 pd mirror;
#X obj 443 221 bng 15 250 50 0 empty empty empty 17 7 0 10 -262144
-1 -1;
#X obj 443 154 r beat;
#X obj 442 194 spigot 0;
#X obj 487 174 tgl 15 0 empty empty empty 17 7 0 10 -4034 -1 -1 0 1
;
#X obj 1407 219 t a a;
#X obj 1434 246 s colorsel_beat;
#X obj 1058 501 sel 0 1 2;
#X obj 1058 389 r gethue;
#X obj 1058 413 bang;
#X obj 1058 471 i 0;
#X obj 1058 684 t a;
#X obj 1058 717 s hue;
#X floatatom 1098 718 5 0 0 0 - - -;
#X obj 1079 434 hradio 15 1 0 8 empty empty empty 0 -8 0 10 -262144
-1 -1 0;
#X obj 443 301 t a b;
#X obj 443 353 unpack f f;
#X obj 448 394 pack f f f;
#X obj 469 327 s gethue;
#X obj 514 359 r hue;
#X obj 448 425 unpack f f f;
#X text 499 237 length;
#X text 297 348 length;
#X obj 244 232 bng 15 250 50 0 empty empty empty 17 7 0 10 -262144
-1 -1;
#X obj 245 165 r beat;
#X obj 244 205 spigot 0;
#X obj 289 185 tgl 15 0 empty empty empty 17 7 0 10 -4034 -1 -1 0 1
;
#X obj 245 261 t b b;
#X obj 245 341 f;
#X obj 274 286 s gethue;
#X obj 260 311 r hue;
#X text 1135 381 hue selection;
#X obj 1236 554 i;
#X obj 1251 529 r colorsel_beat;
#X obj 1240 620 hcr;
#X obj 1266 807 t a;
#X obj 1266 840 s hue;
#X floatatom 1303 841 5 0 0 0 - - -;
#X obj 1239 582 sel 0 1 2 3;
#X floatatom 521 455 5 0 0 0 - - -;
#X obj 1283 620 hcr;
#X obj 1325 620 hcr;
#X obj 1368 620 hcr;
#X connect 0 0 9 0;
#X connect 1 0 12 0;
#X connect 2 0 3 0;
#X connect 2 1 3 1;
#X connect 3 0 4 0;
#X connect 4 0 5 0;
#X connect 5 0 0 0;
#X connect 9 0 1 0;
#X connect 9 1 10 0;
#X connect 10 0 16 0;
#X connect 12 0 37 0;
#X connect 13 0 12 1;
#X connect 18 0 17 0;
#X connect 19 0 20 0;
#X connect 20 0 18 0;
#X connect 21 0 18 1;
#X connect 21 0 22 0;
#X connect 23 0 19 0;
#X connect 24 0 25 0;
#X connect 25 0 43 0;
#X connect 26 0 31 0;
#X connect 27 0 29 0;
#X connect 27 0 28 0;
#X connect 28 0 27 1;
#X connect 29 0 30 0;
#X connect 30 0 43 0;
#X connect 32 0 47 0;
#X connect 33 0 32 0;
#X connect 34 0 35 0;
#X connect 35 0 33 0;
#X connect 36 0 35 1;
#X connect 37 0 7 0;
#X connect 37 0 15 0;
#X connect 37 1 38 0;
#X connect 39 0 24 0;
#X connect 39 1 27 0;
#X connect 39 2 64 0;
#X connect 40 0 41 0;
#X connect 41 0 42 0;
#X connect 42 0 39 0;
#X connect 43 0 44 0;
#X connect 43 0 45 0;
#X connect 46 0 42 1;
#X connect 47 0 48 0;
#X connect 47 1 50 0;
#X connect 48 0 49 0;
#X connect 48 1 49 1;
#X connect 49 0 52 0;
#X connect 51 0 49 2;
#X connect 52 2 71 0;
#X connect 55 0 59 0;
#X connect 56 0 57 0;
#X connect 57 0 55 0;
#X connect 58 0 57 1;
#X connect 59 0 60 0;
#X connect 59 1 61 0;
#X connect 60 0 26 0;
#X connect 62 0 60 1;
#X connect 64 0 70 0;
#X connect 65 0 64 1;
#X connect 66 0 67 0;
#X connect 67 0 68 0;
#X connect 67 0 69 0;
#X connect 70 0 66 0;
#X connect 70 1 72 0;
#X connect 70 2 73 0;
#X connect 70 3 74 0;
#X connect 72 0 67 0;
#X connect 73 0 67 0;
#X connect 74 0 67 0;
