#N canvas 237 60 1643 976 10;
#X obj 1407 89 bng 15 250 50 0 empty empty empty 17 7 0 10 -4032 -1
-1;
#X floatatom 1407 143 5 0 0 0 - - -;
#X obj 1407 3 keyname;
#X obj 1407 25 pack f s;
#X obj 1407 45 route 1;
#X obj 1407 66 route F5;
#X text 1426 88 <- push this or hit F5 four times on the beat;
#X obj 1417 525 bng 15 250 50 0 empty empty empty 17 7 0 10 -262144
-1 -1;
#X text 1436 525 <- beat indicator;
#N canvas 728 106 1126 641 taptempo 0;
#X obj 72 60 x37v-tempo_tapper;
#X floatatom 188 169 5 0 0 0 - - -;
#X obj 188 147 /;
#X obj 188 106 t b f;
#X msg 188 127 60000;
#X obj 72 169 metro;
#X msg 72 113 1;
#X msg 124 215 set 0;
#X obj 72 255 x37v-count 4;
#X floatatom 188 87 5 0 0 0 - - -;
#X msg 72 32 reset;
#X text 119 30 <- reset the calculation \, or just wait 1 second after
a bang input;
#X text 222 168 <- bpm;
#X obj -9 6 inlet;
#X obj 72 285 outlet;
#X obj 188 226 outlet;
#X obj 286 212 outlet;
#X obj 72 87 t b b b;
#X msg 111 111 0;
#X connect 0 1 5 1;
#X connect 0 1 9 0;
#X connect 1 0 15 0;
#X connect 2 0 1 0;
#X connect 3 0 4 0;
#X connect 3 1 2 1;
#X connect 4 0 2 0;
#X connect 5 0 8 0;
#X connect 6 0 5 0;
#X connect 7 0 8 0;
#X connect 8 0 14 0;
#X connect 9 0 3 0;
#X connect 9 0 16 0;
#X connect 10 0 0 0;
#X connect 13 0 0 0;
#X connect 17 0 6 0;
#X connect 17 1 7 0;
#X connect 17 2 18 0;
#X connect 18 0 5 0;
#X restore 1407 116 pd taptempo;
#X floatatom 1470 141 5 0 0 0 - - -;
#X text 1506 140 <-bpm;
#X obj 1407 188 spigot 0;
#X obj 1452 168 tgl 15 0 empty empty empty 17 7 0 10 -4034 -1 -1 0
1;
#X text 1274 141 beat number: 0..3 ->;
#X obj 1421 493 s beat;
#X obj 1474 173 s bpm;
#X obj 1105 91 s strobe_tick;
#X obj 1105 64 metro 4;
#X obj 1105 20 sel 0;
#X msg 1105 41 1;
#X obj 1147 37 hsl 128 15 4 200 0 0 empty empty empty -2 -8 0 10 -262144
-1 -1 3571 1;
#X floatatom 1159 65 5 0 0 0 - - -;
#X obj 1105 -7 r beat;
#X obj 931 590 random 128;
#X obj 931 623 / 128;
#X obj 18 198 pat_shift 6;
#X obj 1004 590 i 0;
#X obj 1030 589 + 7;
#X obj 1004 614 / 100;
#X obj 1004 641 wrap;
#N canvas 341 222 486 637 mirror 0;
#X obj -286 337 + 4;
#X obj -281 179 t f b f;
#X floatatom -278 388 5 0 0 0 - - -;
#X floatatom -243 388 5 0 0 0 - - -;
#X obj -250 339 -;
#X obj -282 143 x37v-count 4;
#X obj -282 94 bng 15 250 50 0 empty empty empty 17 7 0 10 -262144
-1 -1;
#X obj -262 310 i 3;
#X obj -178 134 mod 2;
#X obj -178 104 t f f;
#X obj -178 197 pack f f;
#X obj -178 80 i;
#X obj -178 224 route 0 1;
#X obj -223 253 - 1;
#X floatatom -169 54 5 0 0 0 - - -;
#X floatatom -325 182 5 0 0 0 - - -;
#X msg -269 118 set_length \$1;
#X obj -164 250 - 1;
#X obj -298 23 inlet;
#X obj -178 16 inlet;
#X obj -278 445 pack f f;
#X msg -278 470 \$2 \$1;
#X obj -278 498 outlet;
#X connect 0 0 2 0;
#X connect 1 0 0 0;
#X connect 1 1 7 0;
#X connect 1 2 4 1;
#X connect 2 0 20 0;
#X connect 3 0 20 1;
#X connect 4 0 3 0;
#X connect 5 0 1 0;
#X connect 5 0 15 0;
#X connect 6 0 5 0;
#X connect 7 0 4 0;
#X connect 8 0 10 0;
#X connect 9 0 8 0;
#X connect 9 1 10 1;
#X connect 10 0 12 0;
#X connect 11 0 9 0;
#X connect 11 0 16 0;
#X connect 12 0 0 1;
#X connect 12 0 13 0;
#X connect 12 1 17 0;
#X connect 13 0 7 1;
#X connect 14 0 11 0;
#X connect 16 0 5 0;
#X connect 17 0 7 1;
#X connect 17 0 0 1;
#X connect 18 0 6 0;
#X connect 19 0 14 0;
#X connect 20 0 21 0;
#X connect 21 0 22 0;
#X restore 242 136 pd mirror;
#X obj 242 94 bng 15 250 50 0 empty empty empty 17 7 0 10 -262144 -1
-1;
#X obj 242 27 r beat;
#X obj 241 67 spigot 0;
#X obj 286 47 tgl 15 0 empty empty empty 17 7 0 10 -4034 -1 -1 0 1
;
#X obj 1407 406 t a a;
#X obj 1434 470 s colorsel_beat;
#X obj 1058 389 r gethue;
#X obj 1058 413 bang;
#X obj 1058 471 i 0;
#X obj 931 716 t a;
#X obj 931 749 s hue;
#X floatatom 971 750 5 0 0 0 - - -;
#X obj 1079 434 hradio 15 1 0 8 empty empty empty 0 -8 0 10 -262144
-1 -1 0;
#X obj 242 174 t a b;
#X obj 242 226 unpack f f;
#X obj 247 267 pack f f f;
#X obj 268 200 s gethue;
#X obj 313 232 r hue;
#X text 298 110 length;
#X text 71 174 length;
#X obj 18 58 bng 15 250 50 0 empty empty empty 17 7 0 10 -262144 -1
-1;
#X obj 19 -9 r beat;
#X obj 18 31 spigot 0;
#X obj 63 11 tgl 15 0 empty empty empty 17 7 0 10 -4034 -1 -1 0 1;
#X obj 19 87 t b b;
#X obj 19 167 f;
#X obj 48 112 s gethue;
#X obj 34 137 r hue;
#X text 1057 354 hue selection;
#X obj 1237 513 i;
#X obj 1252 488 r colorsel_beat;
#X obj 1238 667 hcr;
#X obj 1264 854 t a;
#X obj 1264 887 s hue;
#X floatatom 1301 888 5 0 0 0 - - -;
#X obj 1237 592 sel 0 1 2 3;
#X obj 423 470 route 0 1 2 3;
#X obj 488 658 t a;
#X obj 488 843 comport;
#X obj 556 691 spigot 0;
#X obj 556 716 print output;
#X obj 601 668 tgl 15 0 empty empty empty 17 7 0 10 -262144 -1 -1 1
1;
#X msg 302 785 baud 115200;
#X obj 302 758 delay 10;
#X obj 301 687 makefilename /dev/ttyUSB%d;
#X obj 301 662 hradio 15 1 0 8 empty empty empty 0 -8 0 10 -262144
-1 -1 0;
#X msg 301 713 devicename \$1;
#X msg 519 796 close;
#X obj 301 736 bang;
#X obj 595 547 route 4 5 6 7;
#X obj 596 92 vsl 15 128 0 1 0 0 empty empty v 0 -9 0 10 -262144 -1
-1 12700 1;
#X obj 575 92 vsl 15 128 0 1 0 0 empty empty s 0 -9 0 10 -262144 -1
-1 12700 1;
#X obj 413 187 unpack f f;
#X obj 487 92 vsl 15 128 0 3000 0 0 empty empty a_ms 0 -9 0 10 -262144
-1 -1 0 1;
#X msg 246 306 \$1 \$3 \, \$2 \$3;
#X obj 171 367 x37v-count 6;
#X obj 171 338 until 6;
#X msg 171 313 6;
#X obj 1190 96 s strobe_speed;
#X obj 1507 206 / 2;
#X obj 1480 232 delay;
#X obj 1407 227 * 2;
#X obj 1408 375 + 0;
#X msg 1424 322 0;
#X floatatom 1369 461 5 0 0 0 - - -;
#X obj 1407 291 t f b b;
#X msg 1499 301 1;
#X obj 1480 268 t b b;
#X text 1551 269 divide beat;
#X obj 423 443 r led_cmd;
#X obj 402 136 r light_hue;
#N canvas 494 78 1261 884 patern 1;
#X obj 154 437 s light_hue;
#X obj 152 233 t b b;
#X obj 187 257 s gethue;
#X obj 154 396 pack f f;
#X obj 200 371 r hue;
#X obj -9 -30 r beat;
#X obj -9 -2 spigot 0;
#X obj 36 -22 tgl 15 0 empty empty empty 17 7 0 10 -4034 -1 -1 0 1
;
#X obj 103 126 list-find;
#X obj 154 171 == 0;
#X obj 154 204 sel 0;
#X msg 96 -101 bang;
#X obj 154 319 list append;
#X obj 154 340 list-drip;
#X msg 236 180 0 1 2 3 4 5;
#X msg 258 244 0 1 2;
#X msg 268 264 3 4 5;
#X obj 245 287 t a;
#X msg 248 223 1 3 5;
#X text 512 -19 <--- subdiv selection;
#X text 626 186 <- light selection;
#N canvas 513 213 450 300 collect 0;
#X obj 195 37 inlet;
#X obj 41 37 inlet;
#X obj 41 144 outlet;
#X msg 195 74 set;
#X text 143 140 1993-2004 by Karlheinz Essl;
#X text 143 160 vs. 1.1;
#X obj 41 99 list trim;
#X obj 41 74 list prepend add2;
#X connect 0 0 3 0;
#X connect 1 0 7 0;
#X connect 3 0 2 0;
#X connect 6 0 2 0;
#X connect 7 0 6 0;
#X restore 255 349 pd collect;
#X msg 255 371 0 2 4;
#X obj 250 314 t a b;
#X obj 159 13 t a b;
#N canvas 513 213 450 300 collect 0;
#X obj 195 37 inlet;
#X obj 41 37 inlet;
#X obj 41 144 outlet;
#X msg 195 74 set;
#X text 143 140 1993-2004 by Karlheinz Essl;
#X text 143 160 vs. 1.1;
#X obj 41 99 list trim;
#X obj 41 74 list prepend add2;
#X connect 0 0 3 0;
#X connect 1 0 7 0;
#X connect 3 0 2 0;
#X connect 6 0 2 0;
#X connect 7 0 6 0;
#X restore 190 50 pd collect;
#X msg 190 72 1 2 4;
#X msg 244 200 0 2 4;
#X msg 115 -77 1 3 5 7;
#X msg 141 -53 1 5;
#X msg 158 -33 1 2 4;
#X msg 210 -12 1;
#X msg 176 -11 4;
#X obj 411 436 s light_hue;
#X obj 409 232 t b b;
#X obj 444 256 s gethue;
#X obj 411 395 pack f f;
#X obj 457 370 r hue;
#X obj 266 -48 r beat;
#X obj 266 -8 spigot 0;
#X obj 311 -28 tgl 15 0 empty empty empty 17 7 0 10 -4034 -1 -1 0 1
;
#X obj 360 125 list-find;
#X obj 411 170 == 0;
#X obj 411 203 sel 0;
#X msg 353 -102 bang;
#X obj 411 318 list append;
#X obj 411 339 list-drip;
#X msg 493 179 0 1 2 3 4 5;
#X msg 515 243 0 1 2;
#X msg 525 263 3 4 5;
#X obj 502 286 t a;
#X msg 505 222 1 3 5;
#N canvas 513 213 450 300 collect 0;
#X obj 195 37 inlet;
#X obj 41 37 inlet;
#X obj 41 144 outlet;
#X msg 195 74 set;
#X text 143 140 1993-2004 by Karlheinz Essl;
#X text 143 160 vs. 1.1;
#X obj 41 99 list trim;
#X obj 41 74 list prepend add2;
#X connect 0 0 3 0;
#X connect 1 0 7 0;
#X connect 3 0 2 0;
#X connect 6 0 2 0;
#X connect 7 0 6 0;
#X restore 512 348 pd collect;
#X msg 512 370 1 3 5;
#X obj 507 313 t a b;
#X obj 416 12 t a b;
#N canvas 513 213 450 300 collect 0;
#X obj 195 37 inlet;
#X obj 41 37 inlet;
#X obj 41 144 outlet;
#X msg 195 74 set;
#X text 143 140 1993-2004 by Karlheinz Essl;
#X text 143 160 vs. 1.1;
#X obj 41 99 list trim;
#X obj 41 74 list prepend add2;
#X connect 0 0 3 0;
#X connect 1 0 7 0;
#X connect 3 0 2 0;
#X connect 6 0 2 0;
#X connect 7 0 6 0;
#X restore 447 49 pd collect;
#X msg 447 71 1 5;
#X msg 501 199 0 2 4;
#X msg 372 -78 1 3 5 7;
#X msg 398 -54 1 5;
#X msg 415 -34 1 2 4;
#X msg 467 -13 1;
#X msg 433 -12 4;
#X text 930 -16 <--- subdiv selection;
#X obj 681 -42 r beat;
#X obj 681 -2 spigot 0;
#X obj 726 -22 tgl 15 0 empty empty empty 17 7 0 10 -4034 -1 -1 0 1
;
#X obj 778 165 list-find;
#X msg 772 -114 bang;
#X msg 1025 180 0 1 2 3 4 5;
#X msg 1047 244 0 1 2;
#X msg 1057 264 3 4 5;
#X obj 1034 287 t a;
#X msg 1037 223 1 3 5;
#N canvas 513 213 450 300 collect 0;
#X obj 195 37 inlet;
#X obj 41 37 inlet;
#X obj 41 144 outlet;
#X msg 195 74 set;
#X text 143 140 1993-2004 by Karlheinz Essl;
#X text 143 160 vs. 1.1;
#X obj 41 99 list trim;
#X obj 41 74 list prepend add2;
#X connect 0 0 3 0;
#X connect 1 0 7 0;
#X connect 3 0 2 0;
#X connect 6 0 2 0;
#X connect 7 0 6 0;
#X restore 1044 349 pd collect;
#X msg 1044 371 0 1 2 3 4 5;
#X obj 1039 314 t a b;
#X obj 835 0 t a b;
#N canvas 513 213 450 300 collect 0;
#X obj 195 37 inlet;
#X obj 41 37 inlet;
#X obj 41 144 outlet;
#X msg 195 74 set;
#X text 143 140 1993-2004 by Karlheinz Essl;
#X text 143 160 vs. 1.1;
#X obj 41 99 list trim;
#X obj 41 74 list prepend add2;
#X connect 0 0 3 0;
#X connect 1 0 7 0;
#X connect 3 0 2 0;
#X connect 6 0 2 0;
#X connect 7 0 6 0;
#X restore 866 37 pd collect;
#X msg 866 59 1;
#X msg 1033 200 0 2 4;
#X msg 791 -90 1 3 5 7;
#X msg 817 -66 1 5;
#X msg 834 -46 1 2 4;
#X msg 886 -25 1;
#X msg 852 -24 4;
#X obj 1009 395 s strobe_leds;
#X obj 829 202 change;
#X obj 829 231 s strobe;
#X text 959 74 <-current subdiv;
#X text 499 71 <-current subdiv;
#X text 226 71 <-current subdiv;
#N canvas 477 321 450 300 remap 0;
#X obj -261 53 list-map;
#X obj -201 53 - 1;
#X obj -261 -82 inlet;
#X obj -255 163 outlet;
#X text -158 54 map empty list gives us a zero.. bummer;
#X obj -234 -8 list length;
#X obj -261 -39 t a a;
#X obj -260 18 spigot;
#X obj -194 25 sel 0;
#X msg -235 102 bang;
#X connect 0 0 3 0;
#X connect 0 1 1 0;
#X connect 1 0 0 1;
#X connect 2 0 6 0;
#X connect 5 0 7 1;
#X connect 5 0 8 0;
#X connect 6 0 7 0;
#X connect 6 1 5 0;
#X connect 7 0 0 0;
#X connect 8 0 9 0;
#X connect 9 0 3 0;
#X restore 829 137 pd remap;
#N canvas 477 321 450 300 remap 0;
#X obj -261 53 list-map;
#X obj -201 53 - 1;
#X obj -261 -82 inlet;
#X obj -255 163 outlet;
#X text -158 54 map empty list gives us a zero.. bummer;
#X obj -234 -8 list length;
#X obj -261 -39 t a a;
#X obj -260 18 spigot;
#X obj -194 25 sel 0;
#X msg -235 102 bang;
#X connect 0 0 3 0;
#X connect 0 1 1 0;
#X connect 1 0 0 1;
#X connect 2 0 6 0;
#X connect 5 0 7 1;
#X connect 5 0 8 0;
#X connect 6 0 7 0;
#X connect 6 1 5 0;
#X connect 7 0 0 0;
#X connect 8 0 9 0;
#X connect 9 0 3 0;
#X restore 413 100 pd remap;
#N canvas 477 321 450 300 remap 0;
#X obj -261 53 list-map;
#X obj -201 53 - 1;
#X obj -261 -82 inlet;
#X obj -255 163 outlet;
#X text -158 54 map empty list gives us a zero.. bummer;
#X obj -234 -8 list length;
#X obj -261 -39 t a a;
#X obj -260 18 spigot;
#X obj -194 25 sel 0;
#X msg -235 102 bang;
#X connect 0 0 3 0;
#X connect 0 1 1 0;
#X connect 1 0 0 1;
#X connect 2 0 6 0;
#X connect 5 0 7 1;
#X connect 5 0 8 0;
#X connect 6 0 7 0;
#X connect 6 1 5 0;
#X connect 7 0 0 0;
#X connect 8 0 9 0;
#X connect 9 0 3 0;
#X restore 153 100 pd remap;
#X obj 36 -56 r all_off;
#X obj 311 -61 r all_off;
#X obj 726 -57 r all_off;
#X obj 826 527 s strobe;
#X obj 826 492 tgl 15 0 empty empty empty 17 7 0 10 -258113 -1 -1 0
1;
#X obj 992 553 spigot 0;
#X obj 1037 519 tgl 15 0 empty empty empty 17 7 0 10 -4034 -1 -1 0
1;
#X obj 985 498 * 5.9999;
#X obj 983 526 i;
#X obj 984 433 r ctl;
#X obj 946 676 s strobe_leds;
#X floatatom 947 588 5 0 0 0 - - -;
#X obj 947 615 change;
#X obj 949 644 list;
#X obj 826 455 r all_off;
#X msg 1008 154 bang;
#X obj 748 511 s solid_on;
#X obj 744 485 tgl 15 0 empty empty empty 17 7 0 10 -261234 -1 -1 0
1;
#X obj 733 456 r all_off;
#X obj 984 464 route 48;
#X connect 1 0 12 0;
#X connect 1 1 2 0;
#X connect 3 0 0 0;
#X connect 4 0 3 1;
#X connect 5 0 6 0;
#X connect 6 0 8 0;
#X connect 7 0 6 1;
#X connect 8 1 9 0;
#X connect 9 0 10 0;
#X connect 10 0 1 0;
#X connect 11 0 24 0;
#X connect 12 0 13 0;
#X connect 13 0 3 0;
#X connect 14 0 17 0;
#X connect 15 0 17 0;
#X connect 16 0 17 0;
#X connect 17 0 12 1;
#X connect 17 0 23 0;
#X connect 18 0 17 0;
#X connect 21 0 22 0;
#X connect 23 0 21 0;
#X connect 23 1 21 1;
#X connect 24 0 25 0;
#X connect 24 0 95 0;
#X connect 24 1 25 1;
#X connect 25 0 26 0;
#X connect 27 0 17 0;
#X connect 28 0 24 0;
#X connect 29 0 24 0;
#X connect 30 0 24 0;
#X connect 31 0 24 0;
#X connect 32 0 24 0;
#X connect 34 0 45 0;
#X connect 34 1 35 0;
#X connect 36 0 33 0;
#X connect 37 0 36 1;
#X connect 38 0 39 0;
#X connect 39 0 41 0;
#X connect 40 0 39 1;
#X connect 41 1 42 0;
#X connect 42 0 43 0;
#X connect 43 0 34 0;
#X connect 44 0 55 0;
#X connect 45 0 46 0;
#X connect 46 0 36 0;
#X connect 47 0 50 0;
#X connect 48 0 50 0;
#X connect 49 0 50 0;
#X connect 50 0 45 1;
#X connect 50 0 54 0;
#X connect 51 0 50 0;
#X connect 52 0 53 0;
#X connect 54 0 52 0;
#X connect 54 1 52 1;
#X connect 55 0 56 0;
#X connect 55 0 94 0;
#X connect 55 1 56 1;
#X connect 56 0 57 0;
#X connect 58 0 50 0;
#X connect 59 0 55 0;
#X connect 60 0 55 0;
#X connect 61 0 55 0;
#X connect 62 0 55 0;
#X connect 63 0 55 0;
#X connect 65 0 66 0;
#X connect 66 0 68 0;
#X connect 67 0 66 1;
#X connect 68 1 88 0;
#X connect 69 0 78 0;
#X connect 70 0 73 0;
#X connect 71 0 73 0;
#X connect 72 0 73 0;
#X connect 73 0 77 0;
#X connect 74 0 73 0;
#X connect 75 0 76 0;
#X connect 77 0 75 0;
#X connect 77 0 87 0;
#X connect 77 1 75 1;
#X connect 78 0 79 0;
#X connect 78 0 93 0;
#X connect 78 1 79 1;
#X connect 79 0 80 0;
#X connect 81 0 73 0;
#X connect 82 0 78 0;
#X connect 83 0 78 0;
#X connect 84 0 78 0;
#X connect 85 0 78 0;
#X connect 86 0 78 0;
#X connect 88 0 89 0;
#X connect 93 0 68 1;
#X connect 94 0 41 1;
#X connect 95 0 8 1;
#X connect 96 0 7 0;
#X connect 97 0 40 0;
#X connect 98 0 67 0;
#X connect 100 0 99 0;
#X connect 102 0 101 1;
#X connect 103 0 104 0;
#X connect 104 0 101 0;
#X connect 104 0 107 0;
#X connect 105 0 115 0;
#X connect 107 0 108 0;
#X connect 108 0 109 0;
#X connect 109 0 106 0;
#X connect 110 0 100 0;
#X connect 111 0 73 0;
#X connect 113 0 112 0;
#X connect 114 0 113 0;
#X connect 115 0 103 0;
#X restore 719 18 pd patern;
#X obj 1237 539 / 2;
#X obj 1238 567 i;
#X obj 168 284 bng 15 250 50 0 empty empty empty 17 7 0 10 -258113
-1 -1;
#X obj 423 602 led_driver 7;
#X obj 441 579 led_driver 6;
#X obj 460 560 led_driver 8;
#X obj 595 613 led_driver 14;
#X obj 613 590 led_driver 15;
#X obj 516 92 vsl 15 128 0 8000 0 0 empty empty s_ms 0 -9 0 10 -262144
-1 -1 0 1;
#X obj 544 92 vsl 15 128 0 3000 0 0 empty empty r_ms 0 -9 0 10 -262144
-1 -1 0 1;
#X obj 447 246 pack f f f f 1 1 1;
#X msg 455 387 \$1 asr \$3 \$4 \$5 \$2 \$6 \$7;
#X obj 455 414 s led_cmd;
#X text 343 27 led ASR + SV Control;
#N canvas 871 9 731 793 strobe 0;
#X obj 86 -2 spigot 0;
#X obj 131 -25 tgl 15 0 empty empty empty 17 7 0 10 -4034 -1 -1 0 1
;
#X obj 87 -106 r strobe_tick;
#X obj 113 123 s gethue;
#X obj 86 91 t b b;
#X obj 107 470 / 2;
#X obj 107 446 r strobe_speed;
#X text 281 158 <- light selection;
#X obj 112 239 list append;
#X obj 112 260 list-drip;
#X msg 194 100 0 1 2 3 4 5;
#X msg 216 164 0 1 2;
#X msg 226 184 3 4 5;
#X obj 203 207 t a;
#X msg 206 143 1 3 5;
#N canvas 513 213 450 300 collect 0;
#X obj 195 37 inlet;
#X obj 41 37 inlet;
#X obj 41 144 outlet;
#X msg 195 74 set;
#X text 143 140 1993-2004 by Karlheinz Essl;
#X text 143 160 vs. 1.1;
#X obj 41 99 list trim;
#X obj 41 74 list prepend add2;
#X connect 0 0 3 0;
#X connect 1 0 7 0;
#X connect 3 0 2 0;
#X connect 6 0 2 0;
#X connect 7 0 6 0;
#X restore 213 269 pd collect;
#X msg 213 291 0;
#X obj 208 234 t a b;
#X msg 202 120 0 2 4;
#X obj 135 289 r hue;
#X obj 152 315 r strobe_s;
#X obj 179 337 r strobe_v;
#X obj 112 361 pack f f 1 1;
#X obj 112 392 t a a;
#X msg 139 419 \$1 set \$2 \$3 \$4;
#X msg 86 428 \$1;
#X obj 86 495 pipe;
#X msg 86 521 \$1 set 0 0 0;
#X obj 136 552 s led_cmd;
#X obj 153 6 sel 0 1;
#X msg 153 57 sendtyped /strobe F;
#X msg 173 35 sendtyped /strobe T;
#X obj 152 83 s osc_out;
#X obj 131 -76 r strobe;
#X obj 93 173 r strobe_leds;
#X text 266 293 <-current leds;
#X obj 139 -50 r all_off;
#X connect 0 0 4 0;
#X connect 1 0 0 1;
#X connect 1 0 29 0;
#X connect 2 0 0 0;
#X connect 4 0 8 0;
#X connect 4 1 3 0;
#X connect 5 0 26 1;
#X connect 6 0 5 0;
#X connect 8 0 9 0;
#X connect 9 0 22 0;
#X connect 10 0 13 0;
#X connect 11 0 13 0;
#X connect 12 0 13 0;
#X connect 13 0 8 1;
#X connect 13 0 17 0;
#X connect 14 0 13 0;
#X connect 15 0 16 0;
#X connect 17 0 15 0;
#X connect 17 1 15 1;
#X connect 18 0 13 0;
#X connect 19 0 22 1;
#X connect 20 0 22 2;
#X connect 21 0 22 3;
#X connect 22 0 23 0;
#X connect 23 0 25 0;
#X connect 23 1 24 0;
#X connect 24 0 28 0;
#X connect 25 0 26 0;
#X connect 26 0 27 0;
#X connect 27 0 28 0;
#X connect 29 0 30 0;
#X connect 29 1 31 0;
#X connect 30 0 32 0;
#X connect 31 0 32 0;
#X connect 33 0 1 0;
#X connect 34 0 13 0;
#X connect 36 0 1 0;
#X restore 719 42 pd strobe;
#X msg 171 393 \$1 set 0 0 0;
#X obj 12 552 x37v-count 6;
#X obj 12 523 until 6;
#X msg 12 497 6;
#X obj 65 679 s led_cmd;
#X obj 479 537 led_driver 13;
#X obj 1056 589 i 0;
#X obj 1056 640 wrap;
#X obj 1056 613 / 127;
#X obj 1082 588 + 1;
#X obj 265 348 s light_hue;
#X obj 1109 588 i 0;
#X obj 1109 639 wrap;
#X obj 1109 612 / 127;
#X obj 1135 587 + 63;
#X floatatom 1093 466 5 0 0 0 - - -;
#X obj 1058 501 sel 0 1 2 3 4 5;
#X obj 832 673 r beat;
#X obj 832 708 sel 0;
#X obj 788 758 spigot 0;
#X msg 832 732 1;
#X obj 789 788 t a b;
#X msg 829 817 0;
#X obj 784 731 r hue;
#X obj 809 881 pack f 1 1;
#X msg 814 914 typedmessage /hsv fff \$1 \$2 \$3;
#X obj 584 266 s cur_s;
#X obj 607 246 s cur_v;
#X obj 838 846 r cur_s;
#X obj 887 846 r cur_v;
#X obj 814 936 s osc_out;
#X obj 60 711 r osc_out;
#X obj 59 792 packOSC;
#X obj 107 733 tgl 15 0 empty empty empty 17 7 0 10 -4034 -1 -1 0 1
;
#X obj 60 755 spigot 0;
#X obj 68 879 udpsend;
#X obj 77 911 tgl 15 0 empty empty empty 17 7 0 10 -262144 -1 -1 0
1;
#X msg 119 851 disconnect;
#X msg 81 824 connect 10.0.0.10 9090;
#X obj 63 -34 r all_off;
#X obj 287 3 r all_off;
#X obj 831 15 cnv 15 100 60 empty empty empty 20 12 0 14 -261234 -66577
0;
#X msg 839 26 0;
#X obj 839 47 s all_off;
#X obj 16 584 pack f f 0.1;
#X msg 65 653 \$1 set \$2 1 \$3;
#X obj 65 627 spigot 0;
#X obj 70 363 vsl 15 128 0 1 0 0 empty empty solid_hue -14 -9 0 10
-262144 -1 -1 100 1;
#X obj 117 376 vsl 15 128 0 1 0 0 empty empty solid_val -14 -9 0 10
-262144 -1 -1 0 1;
#X obj 71 517 t b f;
#X obj 117 520 t b f;
#X obj 110 602 tgl 15 0 empty empty empty 17 7 0 10 -261234 -1 -1 0
1;
#X obj -15 355 metro 4000;
#X obj -15 332 tgl 15 0 empty empty empty 17 7 0 10 -262144 -1 -1 0
1;
#X obj -11 392 x37v-count 127;
#X obj -4 427 / 127;
#X obj -19 305 r all_off;
#X obj 117 566 r all_off;
#X obj 154 254 r all_off;
#X msg 469 365 \$1 duck \$3 \$4 \$5 \$2 \$6 \$7;
#X obj 444 317 list trim;
#X obj 444 341 route 0 1;
#X obj 444 293 list prepend 0;
#X obj 525 272 hradio 15 1 0 2 empty empty empty 0 -8 0 10 -159808
-1 -1 0;
#X obj 1051 47 vsl 15 128 0 1 0 0 empty empty v 0 -9 0 10 -262144 -1
-1 12700 1;
#X obj 1030 47 vsl 15 128 0 1 0 0 empty empty s 0 -9 0 10 -262144 -1
-1 12700 1;
#X obj 1029 218 s strobe_s;
#X obj 1055 196 s strobe_v;
#X text 986 61 strobe;
#X obj 733 170 ctlin;
#X obj 735 264 pack f f;
#X msg 735 293 \$2 \$1;
#X obj 733 219 / 127;
#X obj 735 329 s ctl;
#X obj 483 -47 r ctl;
#X obj 779 322 print;
#X obj 483 -24 route 40 41 42 43 44;
#X obj 482 7 * 3000;
#X obj 524 10 * 3000;
#X obj 498 38 * 8000;
#X obj 1151 10 + 4;
#X obj 1159 -12 * 200;
#X obj 1159 -53 r ctl;
#X obj 1159 -33 route 45;
#X obj 991 -33 r ctl;
#X obj 988 -2 route 46 47;
#X obj 1205 194 r ctl;
#X msg 1205 217 \$2 \$1;
#X obj 1207 247 route 1;
#X obj 1207 315 >= 58;
#X obj 1250 314 <= 63;
#X obj 1205 351 spigot 0;
#X obj 1207 280 t f f f;
#X obj 1161 376 spigot 0;
#X obj 1163 404 - 58;
#X obj 1281 667 hcr;
#X obj 1323 667 hcr;
#X obj 1366 667 hcr;
#X msg 1324 605 hue \$1;
#X msg 1331 623 rand \$1;
#X obj 1320 535 r ctl;
#X obj 1325 560 route 8 16 9 17 10 18 11 19;
#X msg 1378 603 hue \$1;
#X msg 1385 621 rand \$1;
#X msg 1431 602 hue \$1;
#X msg 1438 620 rand \$1;
#X msg 1485 600 hue \$1;
#X msg 1492 618 rand \$1;
#X obj 828 -37 r ctl;
#X obj 830 -13 route 65;
#X obj 67 322 route 15 23;
#X obj 89 292 r ctl;
#X obj 1336 -29 r ctl;
#X msg 1336 -2 \$2 \$1;
#X obj 1336 25 route 1;
#X obj 1340 51 sel 64;
#X obj 139 589 r solid_on;
#X connect 0 0 9 0;
#X connect 1 0 12 0;
#X connect 2 0 3 0;
#X connect 2 1 3 1;
#X connect 3 0 4 0;
#X connect 4 0 5 0;
#X connect 5 0 0 0;
#X connect 9 0 1 0;
#X connect 9 1 10 0;
#X connect 9 2 91 0;
#X connect 10 0 16 0;
#X connect 12 0 93 0;
#X connect 13 0 12 1;
#X connect 18 0 17 0;
#X connect 19 0 20 0;
#X connect 20 0 18 0;
#X connect 21 0 18 1;
#X connect 21 0 22 0;
#X connect 22 0 90 0;
#X connect 23 0 19 0;
#X connect 24 0 25 0;
#X connect 25 0 41 0;
#X connect 27 0 29 0;
#X connect 27 0 28 0;
#X connect 28 0 27 1;
#X connect 29 0 30 0;
#X connect 30 0 41 0;
#X connect 31 0 45 0;
#X connect 32 0 31 0;
#X connect 33 0 34 0;
#X connect 34 0 32 0;
#X connect 35 0 34 1;
#X connect 36 0 15 0;
#X connect 36 0 96 0;
#X connect 36 0 7 0;
#X connect 36 1 37 0;
#X connect 38 0 39 0;
#X connect 39 0 40 0;
#X connect 40 0 135 0;
#X connect 41 0 42 0;
#X connect 41 0 43 0;
#X connect 44 0 40 1;
#X connect 44 0 134 0;
#X connect 45 0 46 0;
#X connect 45 1 48 0;
#X connect 46 0 47 0;
#X connect 46 1 47 1;
#X connect 47 0 86 0;
#X connect 49 0 47 2;
#X connect 52 0 56 0;
#X connect 53 0 54 0;
#X connect 54 0 52 0;
#X connect 55 0 54 1;
#X connect 56 0 57 0;
#X connect 56 1 58 0;
#X connect 57 0 26 0;
#X connect 59 0 57 1;
#X connect 61 0 104 0;
#X connect 62 0 61 1;
#X connect 63 0 64 0;
#X connect 64 0 65 0;
#X connect 64 0 66 0;
#X connect 67 0 63 0;
#X connect 67 1 214 0;
#X connect 67 2 215 0;
#X connect 67 3 216 0;
#X connect 68 0 107 0;
#X connect 68 1 108 0;
#X connect 68 2 109 0;
#X connect 68 3 124 0;
#X connect 68 4 81 0;
#X connect 69 0 70 0;
#X connect 69 0 71 0;
#X connect 71 0 72 0;
#X connect 73 0 71 1;
#X connect 74 0 70 0;
#X connect 75 0 74 0;
#X connect 76 0 78 0;
#X connect 77 0 76 0;
#X connect 78 0 70 0;
#X connect 78 0 80 0;
#X connect 79 0 70 0;
#X connect 80 0 75 0;
#X connect 81 0 110 0;
#X connect 81 1 111 0;
#X connect 82 0 114 6;
#X connect 82 0 146 0;
#X connect 83 0 114 5;
#X connect 83 0 145 0;
#X connect 84 0 114 0;
#X connect 84 1 114 1;
#X connect 85 0 114 2;
#X connect 86 0 129 0;
#X connect 87 0 119 0;
#X connect 87 1 88 1;
#X connect 88 0 87 0;
#X connect 89 0 88 0;
#X connect 91 0 92 1;
#X connect 92 0 99 0;
#X connect 93 0 97 0;
#X connect 94 0 36 0;
#X connect 95 0 94 1;
#X connect 97 0 94 0;
#X connect 97 1 92 0;
#X connect 97 2 95 0;
#X connect 98 0 94 1;
#X connect 99 0 94 0;
#X connect 99 1 98 0;
#X connect 101 0 68 0;
#X connect 102 0 84 0;
#X connect 104 0 105 0;
#X connect 105 0 67 0;
#X connect 106 0 89 0;
#X connect 107 0 69 0;
#X connect 108 0 69 0;
#X connect 109 0 69 0;
#X connect 110 0 69 0;
#X connect 111 0 69 0;
#X connect 112 0 114 3;
#X connect 113 0 114 4;
#X connect 114 0 181 0;
#X connect 115 0 116 0;
#X connect 119 0 68 0;
#X connect 120 0 163 0;
#X connect 120 1 121 1;
#X connect 121 0 120 0;
#X connect 122 0 121 0;
#X connect 124 0 69 0;
#X connect 125 0 127 0;
#X connect 125 0 128 0;
#X connect 126 0 41 0;
#X connect 127 0 126 0;
#X connect 128 0 125 1;
#X connect 130 0 132 0;
#X connect 130 0 133 0;
#X connect 131 0 41 0;
#X connect 132 0 131 0;
#X connect 133 0 130 1;
#X connect 135 0 24 0;
#X connect 135 1 27 0;
#X connect 135 2 125 0;
#X connect 135 3 130 0;
#X connect 135 4 63 0;
#X connect 135 5 61 0;
#X connect 136 0 137 0;
#X connect 137 0 139 0;
#X connect 138 0 140 0;
#X connect 139 0 138 1;
#X connect 140 0 143 0;
#X connect 140 1 141 0;
#X connect 141 0 138 1;
#X connect 142 0 138 0;
#X connect 143 0 144 0;
#X connect 144 0 149 0;
#X connect 147 0 143 1;
#X connect 148 0 143 2;
#X connect 150 0 153 0;
#X connect 151 0 154 0;
#X connect 152 0 153 1;
#X connect 153 0 151 0;
#X connect 154 0 155 0;
#X connect 156 0 154 0;
#X connect 157 0 154 0;
#X connect 158 0 55 0;
#X connect 159 0 35 0;
#X connect 161 0 162 0;
#X connect 163 0 165 0;
#X connect 164 0 123 0;
#X connect 165 0 164 0;
#X connect 166 0 168 0;
#X connect 167 0 169 0;
#X connect 168 0 122 0;
#X connect 168 1 163 1;
#X connect 169 0 122 0;
#X connect 169 1 163 2;
#X connect 170 0 165 1;
#X connect 171 0 173 0;
#X connect 172 0 171 0;
#X connect 173 0 174 0;
#X connect 174 0 166 0;
#X connect 175 0 172 0;
#X connect 176 0 170 0;
#X connect 177 0 106 0;
#X connect 178 0 116 0;
#X connect 179 0 180 0;
#X connect 180 0 115 0;
#X connect 180 1 178 0;
#X connect 181 0 179 0;
#X connect 182 0 181 1;
#X connect 183 0 186 0;
#X connect 184 0 185 0;
#X connect 188 0 191 0;
#X connect 188 1 189 1;
#X connect 189 0 190 0;
#X connect 190 0 192 0;
#X connect 190 0 194 0;
#X connect 191 0 189 0;
#X connect 193 0 195 0;
#X connect 195 0 196 0;
#X connect 195 1 198 0;
#X connect 195 2 197 0;
#X connect 195 3 83 0;
#X connect 195 4 82 0;
#X connect 196 0 85 0;
#X connect 197 0 113 0;
#X connect 198 0 112 0;
#X connect 199 0 21 0;
#X connect 200 0 199 0;
#X connect 201 0 202 0;
#X connect 202 0 200 0;
#X connect 203 0 204 0;
#X connect 204 0 184 0;
#X connect 204 1 183 0;
#X connect 205 0 206 0;
#X connect 206 0 207 0;
#X connect 207 0 211 0;
#X connect 208 0 210 0;
#X connect 209 0 210 1;
#X connect 210 0 212 1;
#X connect 211 0 208 0;
#X connect 211 1 209 0;
#X connect 211 2 212 0;
#X connect 212 0 213 0;
#X connect 213 0 44 0;
#X connect 214 0 64 0;
#X connect 215 0 64 0;
#X connect 216 0 64 0;
#X connect 217 0 63 1;
#X connect 218 0 63 1;
#X connect 219 0 220 0;
#X connect 220 0 217 0;
#X connect 220 1 218 0;
#X connect 220 2 221 0;
#X connect 220 3 222 0;
#X connect 220 4 223 0;
#X connect 220 5 224 0;
#X connect 220 6 225 0;
#X connect 220 7 226 0;
#X connect 221 0 214 1;
#X connect 222 0 214 1;
#X connect 223 0 215 1;
#X connect 224 0 215 1;
#X connect 225 0 216 1;
#X connect 226 0 216 1;
#X connect 227 0 228 0;
#X connect 228 0 161 0;
#X connect 229 0 166 0;
#X connect 229 1 167 0;
#X connect 230 0 229 0;
#X connect 231 0 232 0;
#X connect 232 0 233 0;
#X connect 233 0 234 0;
#X connect 234 0 0 0;
#X connect 235 0 170 0;
