#N canvas 601 69 1048 911 10;
#X obj 203 46 vsl 15 128 0 1 0 0 empty empty delmul 0 -9 0 10 -262144
-1 -1 12700 1;
#X obj 246 46 vsl 15 128 0 7 0 0 empty \$0-pivot_len pivot 0 -9 0 10
-262144 -1 -1 0 1;
#X obj 613 17 loadbang;
#X obj 448 131 s \$0-pivot_len;
#X msg 448 73 range 0 \$1;
#X obj 166 358 x37v-nlist;
#X obj 449 23 r \$0-length;
#X obj 569 241 r \$0-length;
#X obj 166 325 i 8;
#X obj 246 203 t b f;
#X obj 195 203 t b f;
#X obj 299 366 *;
#X obj 193 423 list-map;
#X obj 181 296 r \$0-length;
#X obj 616 87 s \$0-length;
#X obj 448 47 - 1;
#X obj 568 287 / 2;
#X obj 307 325 expr abs($f1 - $f2) / ($f3 + abs($f3 - $f2));
#X obj 569 264 - 1;
#X msg 614 46 8;
#X obj 167 234 t b f;
#X obj 296 396 *;
#X obj 88 16 inlet;
#X text 124 16 max delay;
#X obj 198 10 inlet;
#X obj 255 9 inlet;
#X obj 10 15 inlet trig;
#X obj 167 384 t a a;
#X obj 168 456 list-drip2;
#X obj 169 508 pack f f;
#X msg 141 112 1;
#X obj 130 75 loadbang;
#X obj 169 550 route 0 1 2 3 4 5 6 7;
#X obj 130 606 delay 1;
#X obj 145 627 delay 1;
#X obj 166 649 delay 1;
#X obj 181 670 delay 1;
#X obj 142 548 t b;
#X obj 225 605 delay 1;
#X obj 240 626 delay 1;
#X obj 261 648 delay 1;
#X obj 276 669 delay 1;
#X msg 68 732 0;
#X msg 98 732 1;
#X msg 128 732 2;
#X msg 160 732 3;
#X msg 192 732 4;
#X msg 222 732 5;
#X msg 252 732 6;
#X msg 284 732 7;
#X obj 164 828 t a;
#X obj 164 874 outlet;
#X connect 0 0 10 0;
#X connect 1 0 9 0;
#X connect 2 0 19 0;
#X connect 4 0 3 0;
#X connect 5 0 27 0;
#X connect 6 0 15 0;
#X connect 7 0 18 0;
#X connect 8 0 5 0;
#X connect 9 0 8 0;
#X connect 9 1 17 1;
#X connect 10 0 8 0;
#X connect 10 1 11 1;
#X connect 11 0 21 0;
#X connect 12 0 28 1;
#X connect 12 1 17 0;
#X connect 13 0 8 1;
#X connect 15 0 4 0;
#X connect 16 0 17 2;
#X connect 17 0 11 0;
#X connect 18 0 16 0;
#X connect 19 0 14 0;
#X connect 20 0 8 0;
#X connect 20 1 21 1;
#X connect 21 0 12 1;
#X connect 22 0 20 0;
#X connect 24 0 0 0;
#X connect 25 0 1 0;
#X connect 26 0 37 0;
#X connect 27 0 28 0;
#X connect 27 1 12 0;
#X connect 28 0 29 0;
#X connect 28 1 29 1;
#X connect 29 0 32 0;
#X connect 30 0 20 0;
#X connect 31 0 30 0;
#X connect 32 0 33 1;
#X connect 32 1 34 1;
#X connect 32 2 35 1;
#X connect 32 3 36 1;
#X connect 32 4 38 1;
#X connect 32 5 39 1;
#X connect 32 6 40 1;
#X connect 32 7 41 1;
#X connect 33 0 42 0;
#X connect 34 0 43 0;
#X connect 35 0 44 0;
#X connect 36 0 45 0;
#X connect 37 0 33 0;
#X connect 37 0 34 0;
#X connect 37 0 35 0;
#X connect 37 0 36 0;
#X connect 37 0 38 0;
#X connect 37 0 39 0;
#X connect 37 0 40 0;
#X connect 37 0 41 0;
#X connect 38 0 46 0;
#X connect 39 0 47 0;
#X connect 40 0 48 0;
#X connect 41 0 49 0;
#X connect 42 0 50 0;
#X connect 43 0 50 0;
#X connect 44 0 50 0;
#X connect 45 0 50 0;
#X connect 46 0 50 0;
#X connect 47 0 50 0;
#X connect 48 0 50 0;
#X connect 49 0 50 0;
#X connect 50 0 51 0;
